<svg width="77" height="59" viewBox="0 0 77 59" fill="none" xmlns="http://www.w3.org/2000/svg">
<g filter="url(#filter0_d_206_12904)">
<path d="M18.8231 27.1519C19.7482 25.7482 21.3169 24.9033 22.998 24.9033H52.5054C53.9311 24.9033 55.2891 25.512 56.2378 26.5763L61.2583 32.2084C64.1312 35.4314 61.8435 40.5355 57.5259 40.5355H19.2862C15.3048 40.5355 12.9204 36.1086 15.1113 32.7841L18.8231 27.1519Z" fill="#1CBEEF"/>
</g>
<path d="M47.5417 5.5868V3.25057C47.5417 2.91485 47.2458 2.62852 46.9081 2.62852H31.7176C31.3799 2.62852 31.084 2.91485 31.084 3.25057V5.5868H25.6343C25.4603 5.5868 25.294 5.67098 25.1731 5.78933C25.0405 5.91902 25.0007 6.08846 25.0007 6.24365C25.0007 6.35691 25.1086 8.59469 25.9303 11.1812L25.9307 11.1823C27.0686 14.6264 28.99 17.0828 31.5644 18.2196C32.4253 20.9836 34.367 23.1704 36.8115 24.0636V24.0978C36.8115 26.9327 34.6136 29.1834 31.7888 29.1834C31.451 29.1834 31.1551 29.4698 31.1551 29.8055V32.7638C31.1551 33.0995 31.451 33.3858 31.7888 33.3858H46.9081C47.2458 33.3858 47.5417 33.0995 47.5417 32.7638V29.8055C47.5417 29.4698 47.2458 29.1834 46.9081 29.1834C44.0446 29.1834 41.7083 26.8953 41.7074 24.0994C44.2582 23.2059 46.2365 20.9829 47.0977 18.1483C49.5646 16.9774 51.4502 14.5572 52.5527 11.1822C53.3852 8.67085 53.4777 6.45598 53.4825 6.25627C53.5237 6.07176 53.4261 5.90264 53.3103 5.78933C53.1893 5.67098 53.0231 5.5868 52.8491 5.5868H47.5417ZM27.4044 11.5159C26.6862 9.61194 26.413 7.77064 26.3142 6.8309H31.084V15.0837C31.084 15.6026 31.1112 16.0973 31.1898 16.5897C29.3004 15.4074 28.1285 13.4358 27.4044 11.5159ZM40.4463 24.4238C40.6431 27.5595 43.1394 30.0982 46.2744 30.3847V32.1069H32.4224V30.3846C35.523 30.0981 37.9147 27.5896 38.0397 24.3886C38.4358 24.4519 38.8647 24.511 39.2951 24.511C39.6871 24.511 40.0798 24.482 40.4463 24.4238ZM41.1495 22.9934L40.6926 23.1309C40.2357 23.2339 39.7821 23.3017 39.3306 23.3017C38.8062 23.3017 38.2825 23.2334 37.7943 23.0971C37.7693 23.0889 37.7399 23.0787 37.7076 23.0674C37.6749 23.056 37.6396 23.0438 37.6051 23.0325C37.5709 23.0214 37.5361 23.0107 37.5044 23.0028C37.4804 22.9969 37.4535 22.9912 37.428 22.9892C34.5293 22.0253 32.3512 18.8707 32.3512 15.1185V3.90742H46.2744V5.89562V6.55688V15.1185C46.2744 18.8755 44.0907 22.0336 41.1506 22.993C41.1503 22.9931 41.1499 22.9933 41.1495 22.9934ZM51.1456 11.4424C50.4428 13.3331 49.3041 15.289 47.463 16.5177C47.5235 16.0578 47.5773 15.5713 47.5773 15.0837V6.8309H52.2048C52.1067 7.76767 51.8424 9.56768 51.1456 11.4424Z" fill="white" stroke="white" stroke-width="0.2" stroke-linecap="round" stroke-linejoin="round"/>
<path d="M40.0826 6.96419L40.0823 6.96371C39.9239 6.65379 39.5705 6.42197 39.2106 6.42197C38.8571 6.42197 38.4988 6.61372 38.3378 6.96596L37.0459 9.52787L34.182 9.93788C33.8205 9.97795 33.5063 10.2505 33.3884 10.5965C33.271 10.9411 33.3461 11.3336 33.6299 11.5735L35.7233 13.5532L35.2349 16.3517C35.1545 16.7106 35.3205 17.0605 35.6296 17.2872C35.7875 17.4031 35.9858 17.4806 36.2223 17.4806C36.3769 17.4806 36.537 17.4436 36.6629 17.3634L39.3161 16.0656L41.8329 17.3651L41.8329 17.3651L41.8348 17.366C42.1478 17.5191 42.544 17.5211 42.8628 17.2872C43.1799 17.0546 43.2979 16.7042 43.2588 16.36L43.259 16.36L43.2579 16.3541L42.7691 13.5532L44.8646 11.5715L44.8646 11.5715L44.8658 11.5703C45.1421 11.3 45.2232 10.9465 45.104 10.5965C45.102 10.5906 45.0994 10.5848 45.0963 10.5794C44.9112 10.2535 44.6396 9.97797 44.2387 9.93781L41.3753 9.52787L40.0826 6.96419ZM41.4248 13.4319L41.8866 15.9816L39.6118 14.8205L39.6118 14.8205L39.6103 14.8197C39.4378 14.7353 39.23 14.7389 39.0319 14.8164L39.0318 14.8161L39.0244 14.8197L36.5689 16.0208L37.0321 13.4318C37.0748 13.2204 36.9888 13.0136 36.8615 12.8891L36.8608 12.8885L34.9799 11.0806L37.5889 10.6929L37.5889 10.693L37.5934 10.6921C37.7979 10.6521 37.9679 10.5306 38.0546 10.361L38.0551 10.36L39.2106 8.03442L40.3662 10.36L40.3662 10.36L40.3667 10.361C40.4451 10.5145 40.6116 10.6899 40.8392 10.6939L43.4436 11.0809L41.6001 12.8844C41.4211 13.02 41.3853 13.2373 41.4248 13.4319Z" fill="white" stroke="white" stroke-width="0.2" stroke-linecap="round" stroke-linejoin="round"/>
<defs>
<filter id="filter0_d_206_12904" x="0.277954" y="14.9033" width="76.2577" height="43.6323" filterUnits="userSpaceOnUse" color-interpolation-filters="sRGB">
<feFlood flood-opacity="0" result="BackgroundImageFix"/>
<feColorMatrix in="SourceAlpha" type="matrix" values="0 0 0 0 0 0 0 0 0 0 0 0 0 0 0 0 0 0 127 0" result="hardAlpha"/>
<feOffset dy="4"/>
<feGaussianBlur stdDeviation="7"/>
<feComposite in2="hardAlpha" operator="out"/>
<feColorMatrix type="matrix" values="0 0 0 0 0.458333 0 0 0 0 0.458333 0 0 0 0 0.458333 0 0 0 0.25 0"/>
<feBlend mode="normal" in2="BackgroundImageFix" result="effect1_dropShadow_206_12904"/>
<feBlend mode="normal" in="SourceGraphic" in2="effect1_dropShadow_206_12904" result="shape"/>
</filter>
</defs>
</svg>
