<svg width="76" height="59" viewBox="0 0 76 59" fill="none" xmlns="http://www.w3.org/2000/svg">
<g filter="url(#filter0_d_206_12913)">
<path d="M18.6684 26.8533C19.5851 25.406 21.1791 24.5288 22.8923 24.5288H51.7376C53.1976 24.5288 54.5846 25.167 55.5345 26.2757L60.6811 32.2827C63.4601 35.5262 61.1554 40.5358 56.8842 40.5358H19.0873C15.1465 40.5358 12.7546 36.1893 14.8634 32.8603L18.6684 26.8533Z" fill="#0DD3A3"/>
</g>
<path d="M23.3611 25.6809L23.3556 25.7862H23.461H34.7506C34.9964 25.7862 35.1953 25.9851 35.1953 26.2309C35.1953 26.4768 34.9964 26.6757 34.7506 26.6757H22.9021C22.6562 26.6757 22.4573 26.4768 22.4573 26.2309C22.4573 19.9924 27.5333 14.9164 33.7725 14.9164C35.4878 14.9164 37.1352 15.2904 38.6694 16.028C38.8907 16.1345 38.984 16.4005 38.8776 16.6216C38.7713 16.8426 38.505 16.9356 38.284 16.8298C36.8707 16.1503 35.3527 15.8059 33.7725 15.8059C28.2083 15.8059 23.6482 20.1871 23.3611 25.6809Z" fill="white" stroke="white" stroke-width="0.2"/>
<path d="M40.0817 7.13449C40.0817 10.7179 37.1655 13.6337 33.5814 13.6337C29.9991 13.6337 27.084 10.7179 27.084 7.13449C27.084 3.55107 29.9988 0.635645 33.5814 0.635645C37.1655 0.635645 40.0817 3.55111 40.0817 7.13449ZM39.1922 7.13449C39.1922 4.0413 36.6753 1.52516 33.5814 1.52516C30.4889 1.52516 27.9735 4.04135 27.9735 7.13449C27.9735 10.2276 30.4889 12.7442 33.5814 12.7442C36.6753 12.7442 39.1922 10.228 39.1922 7.13449Z" fill="white" stroke="white" stroke-width="0.2"/>
<path d="M51.9013 19.2477V19.3477H52.0013H54.7251C54.9709 19.3477 55.1698 19.5466 55.1698 19.7925V33.593C55.1698 33.8389 54.9709 34.0378 54.7251 34.0378H37.656C37.4101 34.0378 37.2112 33.8389 37.2112 33.593V19.7925C37.2112 19.5466 37.4101 19.3477 37.656 19.3477H48.0064H48.1064V19.2477V15.4344C48.1064 15.1886 48.3053 14.9896 48.5511 14.9896H51.4565C51.7024 14.9896 51.9013 15.1886 51.9013 15.4344V19.2477ZM49.0959 15.8792H48.9959V15.9792V22.8794V22.9794H49.0959H50.9118H51.0118V22.8794V15.9792V15.8792H50.9118H49.0959ZM48.1064 20.3372V20.2372H48.0064H38.2007H38.1007V20.3372V29.0534V29.1534H38.2007H54.1803H54.2803V29.0534V20.3372V20.2372H54.1803H52.0013H51.9013V20.3372V23.4242C51.9013 23.67 51.7024 23.869 51.4565 23.869H48.5511C48.3053 23.869 48.1064 23.67 48.1064 23.4242V20.3372ZM38.1007 33.0483V33.1483H38.2007H54.1803H54.2803V33.0483V30.1429V30.0429H54.1803H38.2007H38.1007V30.1429V33.0483Z" fill="white" stroke="white" stroke-width="0.2"/>
<path d="M45.2826 21.9856H44.9194C44.6736 21.9856 44.4746 21.7867 44.4746 21.5409C44.4746 21.295 44.6736 21.0961 44.9194 21.0961H45.2826C45.5284 21.0961 45.7273 21.295 45.7273 21.5409C45.7273 21.7867 45.5284 21.9856 45.2826 21.9856Z" fill="white" stroke="white" stroke-width="0.2"/>
<path d="M45.2826 24.5281H44.9194C44.6736 24.5281 44.4746 24.3292 44.4746 24.0833C44.4746 23.8375 44.6736 23.6386 44.9194 23.6386H45.2826C45.5284 23.6386 45.7273 23.8375 45.7273 24.0833C45.7273 24.3292 45.5284 24.5281 45.2826 24.5281Z" fill="white" stroke="white" stroke-width="0.2"/>
<path d="M41.2876 21.9856H40.9244C40.6786 21.9856 40.4796 21.7867 40.4796 21.5409C40.4796 21.295 40.6786 21.0961 40.9244 21.0961H41.2876C41.5334 21.0961 41.7323 21.295 41.7323 21.5409C41.7323 21.7867 41.5334 21.9856 41.2876 21.9856Z" fill="white" stroke="white" stroke-width="0.2"/>
<path d="M41.2876 24.5281H40.9244C40.6786 24.5281 40.4796 24.3292 40.4796 24.0833C40.4796 23.8375 40.6786 23.6386 40.9244 23.6386H41.2876C41.5334 23.6386 41.7323 23.8375 41.7323 24.0833C41.7323 24.3292 41.5334 24.5281 41.2876 24.5281Z" fill="white" stroke="white" stroke-width="0.2"/>
<defs>
<filter id="filter0_d_206_12913" x="0.0792236" y="14.5288" width="75.8146" height="44.0068" filterUnits="userSpaceOnUse" color-interpolation-filters="sRGB">
<feFlood flood-opacity="0" result="BackgroundImageFix"/>
<feColorMatrix in="SourceAlpha" type="matrix" values="0 0 0 0 0 0 0 0 0 0 0 0 0 0 0 0 0 0 127 0" result="hardAlpha"/>
<feOffset dy="4"/>
<feGaussianBlur stdDeviation="7"/>
<feComposite in2="hardAlpha" operator="out"/>
<feColorMatrix type="matrix" values="0 0 0 0 0.458333 0 0 0 0 0.458333 0 0 0 0 0.458333 0 0 0 0.25 0"/>
<feBlend mode="normal" in2="BackgroundImageFix" result="effect1_dropShadow_206_12913"/>
<feBlend mode="normal" in="SourceGraphic" in2="effect1_dropShadow_206_12913" result="shape"/>
</filter>
</defs>
</svg>
